#define idx_width 16
#define idx_height 12
static char idx_bits[] = {
   0x00, 0x00, 0x00, 0x00, 0x0e, 0x02, 0x04, 0x02, 0x04, 0x02, 0xc4, 0x8a,
   0x24, 0x53, 0x14, 0x22, 0x14, 0x22, 0x24, 0x53, 0xce, 0x8a, 0x00, 0x00};
